<svg width="284" height="270" viewBox="0 0 284 270" fill="none" xmlns="http://www.w3.org/2000/svg">
<path d="M77 0V15H212V169.106C217.317 164.3 222.33 159.342 227 154.279V0H77Z" fill="#121715"/>
<path d="M227 190.471C222.211 194.804 217.203 199.021 212 203.096V250H227V190.471Z" fill="#121715"/>
<path d="M207 173.504V20H57V228.532C80.2858 232.295 110.713 227.752 143.819 213.232C167.142 203.001 188.688 189.176 207 173.504Z" fill="#121715"/>
<path d="M57 256.832C83.7635 260.233 116.792 254.569 151.593 239.305C171.461 230.59 190.171 219.51 207 206.923V270H57V256.832Z" fill="#121715"/>
<path d="M145.827 217.811C219.041 185.697 275.125 118.858 271.095 68.5218C269.345 46.6705 256.555 31.5211 236.65 24C263.484 30.5256 281.14 47.986 283.293 74.8697C287.616 128.869 227.753 200.439 149.585 234.726C71.4163 269.013 4.54357 253.033 0.220192 199.033C-1.10823 182.441 3.62328 164.191 13.0837 145.872C7.56348 159.338 4.98397 172.566 5.96474 184.816C9.99485 235.152 72.6133 249.924 145.827 217.811Z" fill="#121715"/>
</svg>
